<svg width="24" height="24" viewBox="0 0 24 24" fill="none" xmlns="http://www.w3.org/2000/svg">
<path d="M20 9.8H5M15.8333 3V6.4M9.16667 3V6.4M9 20H16C17.4001 20 18.1002 20 18.635 19.7221C19.1054 19.4776 19.4878 19.0875 19.7275 18.6077C20 18.0622 20 17.3481 20 15.92V8.78C20 7.35187 20 6.6378 19.7275 6.09232C19.4878 5.61251 19.1054 5.22241 18.635 4.97793C18.1002 4.7 17.4001 4.7 16 4.7H9C7.59987 4.7 6.8998 4.7 6.36502 4.97793C5.89462 5.22241 5.51217 5.61251 5.27248 6.09232C5 6.6378 5 7.35187 5 8.78V15.92C5 17.3481 5 18.0622 5.27248 18.6077C5.51217 19.0875 5.89462 19.4776 6.36502 19.7221C6.8998 20 7.59987 20 9 20Z" stroke="white" stroke-width="1.5" stroke-linecap="round" stroke-linejoin="round"/>
</svg>
