<svg width="24" height="24" viewBox="0 0 24 24" fill="none" xmlns="http://www.w3.org/2000/svg">
<path d="M18.7249 8.3333C18.7941 8.18163 18.8308 8.02164 18.8583 7.81081C19.0266 6.50082 19.1108 5.84582 18.7266 5.4225C18.3433 5 17.6633 5 16.305 5H6.69505C5.33673 5 4.65757 5 4.2734 5.4225C3.88924 5.84582 3.97341 6.50082 4.14174 7.81081C4.19174 8.1933 4.2734 8.4108 4.52257 8.70746C5.33006 9.66579 6.80755 11.3716 8.88086 12.9216C9.07086 13.0633 9.19502 13.2949 9.21586 13.5507C9.44919 16.4049 9.66335 18.3549 9.77752 19.3149C9.83668 19.8182 10.395 20.2057 10.855 19.8799C11.6275 19.334 13.0717 18.7215 13.2616 17.7032C13.3516 17.2224 13.4841 16.3824 13.6325 14.9999M16.0833 9.16662V14.9999M18.9999 12.0833H13.1666" stroke="white" stroke-width="1.5" stroke-linecap="round" stroke-linejoin="round"/>
</svg>
