<svg width="24" height="24" viewBox="0 0 24 24" fill="none" xmlns="http://www.w3.org/2000/svg">
<path d="M7.5 14.25L11.625 10.125M9.75 16.5L11.625 14.625M3.3105 12.4395L11.5605 4.1895C11.8417 3.90818 12.2232 3.75008 12.621 3.75H18.75C19.1478 3.75 19.5294 3.90804 19.8107 4.18934C20.092 4.47064 20.25 4.85218 20.25 5.25V11.379C20.2499 11.7768 20.0918 12.1583 19.8105 12.4395L11.5605 20.6895C11.2792 20.9707 10.8977 21.1287 10.5 21.1287C10.1023 21.1287 9.72079 20.9707 9.4395 20.6895L3.3105 14.5605C3.0293 14.2792 2.87132 13.8977 2.87132 13.5C2.87132 13.1023 3.0293 12.7208 3.3105 12.4395Z" stroke="white" stroke-width="1.5" stroke-linecap="round" stroke-linejoin="round"/>
<path d="M17.25 7.5C17.25 7.69891 17.171 7.88968 17.0303 8.03033C16.8897 8.17098 16.6989 8.25 16.5 8.25C16.3011 8.25 16.1103 8.17098 15.9697 8.03033C15.829 7.88968 15.75 7.69891 15.75 7.5C15.75 7.30109 15.829 7.11032 15.9697 6.96967C16.1103 6.82902 16.3011 6.75 16.5 6.75C16.6989 6.75 16.8897 6.82902 17.0303 6.96967C17.171 7.11032 17.25 7.30109 17.25 7.5Z" fill="white"/>
</svg>
